<svg width="38" height="38" viewBox="0 0 38 38" fill="none" xmlns="http://www.w3.org/2000/svg">
<path d="M30.9231 8.75636C31.3868 8.29261 31.3868 7.54073 30.9231 7.07698C30.4593 6.61323 29.7074 6.61323 29.2437 7.07698L19 17.3206L8.75636 7.07698C8.29261 6.61324 7.54073 6.61324 7.07698 7.07698C6.61323 7.54073 6.61323 8.29261 7.07698 8.75636L17.3206 19L7.07703 29.2436C6.61328 29.7074 6.61328 30.4593 7.07703 30.923C7.54077 31.3868 8.29266 31.3868 8.7564 30.923L19 20.6794L29.2437 30.923C29.7074 31.3868 30.4593 31.3868 30.923 30.923C31.3868 30.4593 31.3868 29.7074 30.923 29.2437L20.6794 19L30.9231 8.75636Z" fill="black"/>
</svg>
