<svg width="16" height="14" viewBox="0 0 16 14" fill="none" xmlns="http://www.w3.org/2000/svg">
<path d="M1 0.0204048C0.585786 0.0204048 0.25 0.356191 0.25 0.770405C0.25 1.18462 0.585786 1.5204 1 1.5204H15C15.4142 1.5204 15.75 1.18462 15.75 0.770405C15.75 0.356191 15.4142 0.0204048 15 0.0204048H1Z" fill="#FFFAFA"/>
<path d="M1 6.0204C0.585786 6.0204 0.25 6.35619 0.25 6.7704C0.25 7.18462 0.585786 7.5204 1 7.5204H15C15.4142 7.5204 15.75 7.18462 15.75 6.7704C15.75 6.35619 15.4142 6.0204 15 6.0204H1Z" fill="#FFFAFA"/>
<path d="M1 12.0204C0.585786 12.0204 0.25 12.3562 0.25 12.7704C0.25 13.1846 0.585786 13.5204 1 13.5204H15C15.4142 13.5204 15.75 13.1846 15.75 12.7704C15.75 12.3562 15.4142 12.0204 15 12.0204H1Z" fill="#FFFAFA"/>
</svg>
