<svg width="48" height="49" viewBox="0 0 48 49" fill="none" xmlns="http://www.w3.org/2000/svg">
<g clip-path="url(#clip0_83_78)">
<path fill-rule="evenodd" clip-rule="evenodd" d="M36.7872 44.9552C32.5992 44.9552 29.892 42.9586 28.572 40.3474L32.244 38.2205C33.2112 39.7997 34.4664 40.9592 36.6912 40.9592C38.5584 40.9592 39.7512 40.0249 39.7512 38.7361C39.7512 36.7969 37.164 36.0392 35.3376 35.2568C32.0832 33.872 29.9232 32.132 29.9232 28.4576C29.9232 25.076 32.5008 22.4986 36.5304 22.4986C39.396 22.4986 41.46 23.4968 42.9408 26.1056L39.4296 28.3615C38.6568 26.9767 37.8192 26.4291 36.5304 26.4291C35.208 26.4291 34.3704 27.2671 34.3704 28.3615C34.3704 29.7151 35.208 30.2626 37.1424 31.1002C41.196 32.8378 44.2632 34.2029 44.2632 38.6717C44.2632 42.7325 41.0736 44.9552 36.7872 44.9552ZM26.4 38.156C26.4 42.8288 23.5224 45.2986 19.5264 45.2986C15.9168 45.2986 13.7544 43.9181 12.6912 41.5181H12.6552H12.6384H12.6288L16.2984 38.9529C17.0064 40.2081 17.6448 41.0986 19.1904 41.0986C20.6736 41.0986 21.6 40.3475 21.6 38.0939V22.3181H26.4V38.156ZM0 48.7181H48V0.71814H0V48.7181Z" fill="white"/>
</g>
<defs>
<clipPath id="clip0_83_78">
<rect width="48" height="48" fill="white" transform="translate(0 0.71814)"/>
</clipPath>
</defs>
</svg>
