<svg width="48" height="49" viewBox="0 0 48 49" fill="none" xmlns="http://www.w3.org/2000/svg">
<g clip-path="url(#clip0_83_83)">
<path d="M0 24.7181V48.7181H48V0.71814H0V24.7181ZM38.679 22.8041C39.8985 23.1086 40.827 23.6561 41.6865 24.5381C42.1245 25.0061 42.78 25.8656 42.8355 26.0771C42.8505 26.1401 40.7655 27.5381 39.4995 28.3196C39.453 28.3511 39.2655 28.1561 39.0615 27.8501C38.445 26.9516 37.7955 26.5616 36.804 26.4911C35.3505 26.3966 34.413 27.1556 34.4205 28.4291C34.413 28.7411 34.4835 29.0546 34.623 29.3276C34.944 29.9921 35.5455 30.3896 37.404 31.1951C40.842 32.6711 42.3105 33.6476 43.224 35.0306C44.247 36.5771 44.4735 39.0461 43.7865 40.8896C43.0215 42.8816 41.13 44.2406 38.4735 44.6861C37.653 44.8346 35.7 44.8106 34.8165 44.6471C32.8875 44.3036 31.059 43.3496 29.934 42.1001C29.4885 41.6156 28.629 40.3421 28.6845 40.2566C28.7085 40.2251 28.9035 40.1006 29.1225 39.9746C29.3415 39.8486 30.1455 39.3806 30.9045 38.9426L32.2875 38.1386L32.577 38.5676C32.9835 39.1841 33.8655 40.0286 34.398 40.3091C35.9295 41.1221 38.031 41.0051 39.0705 40.0751C39.492 39.7241 39.7275 39.1841 39.696 38.6381C39.696 38.0831 39.6255 37.8341 39.336 37.4186C38.961 36.8876 38.2035 36.4346 36.039 35.4971C33.5625 34.4261 32.4915 33.7706 31.524 32.7161C30.915 32.0201 30.462 31.2011 30.204 30.3176C30.024 29.6381 29.9775 27.9341 30.1185 27.2546C30.627 24.8561 32.439 23.1926 35.04 22.7006C35.8845 22.5371 37.8525 22.5986 38.6805 22.8026L38.679 22.8041ZM27.414 24.8126L27.429 26.7731H21.1785V44.5316H16.7565V26.7731H10.515V24.8516C10.515 23.7806 10.539 22.8911 10.569 22.8671C10.593 22.8356 14.3895 22.8206 18.999 22.8281L27.39 22.8521L27.414 24.8126Z" fill="white"/>
</g>
<defs>
<clipPath id="clip0_83_83">
<rect width="48" height="48" fill="white" transform="translate(0 0.71814)"/>
</clipPath>
</defs>
</svg>
