<svg width="22" height="49" viewBox="0 0 22 49" fill="none" xmlns="http://www.w3.org/2000/svg">
<g clip-path="url(#clip0_83_160)">
<path d="M14.9603 5.65575C13.0002 3.27907 11.3122 0.865272 10.9673 0.363927C10.931 0.32677 10.8768 0.32677 10.8404 0.363927C10.4956 0.865272 8.80754 3.27907 6.84742 5.65575C-9.97707 27.5842 9.49715 42.3828 9.49715 42.3828L9.66089 42.4942C9.806 44.7781 10.169 48.0648 10.169 48.0648H10.895H11.621C11.621 48.0648 11.984 44.7965 12.1291 42.4942L12.2924 42.3643C12.3106 42.3828 31.7848 27.5842 14.9603 5.65575ZM10.895 42.0673C10.895 42.0673 10.0239 41.3058 9.78781 40.9162V40.8789L10.8404 17.0007C10.8404 16.9264 10.9492 16.9264 10.9492 17.0007L12.0018 40.8789V40.9162C11.7661 41.3058 10.895 42.0673 10.895 42.0673Z" fill="white"/>
</g>
<defs>
<clipPath id="clip0_83_160">
<rect width="22" height="48" fill="white" transform="translate(0 0.33606)"/>
</clipPath>
</defs>
</svg>
