<svg width="48" height="49" viewBox="0 0 48 49" fill="none" xmlns="http://www.w3.org/2000/svg">
<g clip-path="url(#clip0_83_167)">
<path fill-rule="evenodd" clip-rule="evenodd" d="M44.2127 37.7251C41.602 37.6524 39.5767 37.92 37.8792 38.634C37.3905 38.8304 36.6061 38.8304 36.5417 39.4455C36.8029 39.7037 36.8344 40.1261 37.0634 40.4839C37.4549 41.1332 38.1412 42.008 38.7609 42.4617L40.8498 43.9545C42.123 44.7326 43.5593 45.187 44.7995 45.9658C45.518 46.4203 46.2357 47.0042 46.9542 47.4914C47.3201 47.751 47.5418 48.1734 47.9991 48.3348V48.2367C47.7708 47.9458 47.7049 47.5241 47.4774 47.1983L46.497 46.2581C45.5509 44.9929 44.3751 43.8891 43.102 42.9816C42.0571 42.2676 39.7728 41.2946 39.3484 40.0949L39.2841 40.0221C40.0011 39.9494 40.8498 39.6971 41.5362 39.5022C42.6469 39.2114 43.658 39.2754 44.7995 38.9838L46.3674 38.5293V38.2385C45.7799 37.6546 45.3555 36.8758 44.7358 36.3246C43.0712 34.8972 41.242 33.5018 39.3484 32.3341C38.3365 31.6854 37.0305 31.263 35.9534 30.7125C35.5605 30.5176 34.9086 30.4202 34.6803 30.0959C34.0913 29.3833 33.7657 28.4417 33.3414 27.5974L30.6649 21.9526C30.0773 20.6874 29.7174 19.4222 29.0003 18.2544C25.6375 12.739 21.9806 9.39775 16.3657 6.12052C15.1584 5.43918 13.7221 5.14614 12.1951 4.78984L9.74689 4.65896C9.22374 4.43209 8.70206 3.81547 8.24476 3.52316C6.3841 2.35536 1.58502 -0.175096 0.213118 3.15959C-0.668556 5.2683 1.51916 7.3443 2.26182 8.41538C2.81789 9.16143 3.53494 10.0049 3.92785 10.8484C4.14735 11.3996 4.22053 11.9842 4.44954 12.5681C4.97123 13.9955 5.46145 15.5857 6.14704 16.9164C6.51288 17.5978 6.89701 18.3125 7.35431 18.9284C7.61552 19.292 8.07281 19.4476 8.17012 20.0315C7.71282 20.6808 7.68137 21.653 7.42016 22.4653C6.24435 26.1315 6.70165 30.6733 8.36622 33.3724C8.88937 34.1832 10.1223 35.9683 11.7949 35.2863C13.2641 34.7024 12.9363 32.8532 13.3607 31.231C13.4594 30.842 13.3936 30.5824 13.5889 30.322V30.3948L14.9279 33.0874C15.9398 34.6769 17.7032 36.3319 19.1717 37.4357C19.9546 38.0196 20.575 39.026 21.554 39.3823V39.2841H21.4896C21.2935 38.9932 20.9994 38.8623 20.7382 38.6355C20.1506 38.0516 19.498 37.3375 19.0407 36.6889C17.6703 34.8725 16.463 32.8605 15.3852 30.7845C14.8621 29.7789 14.4048 28.6758 13.9819 27.6701C13.7843 27.2804 13.7843 26.6958 13.4587 26.5024C12.9685 27.215 12.2514 27.833 11.8907 28.7085C11.2703 30.1032 11.2059 31.8229 10.9776 33.6073C10.8459 33.64 10.9044 33.6073 10.8459 33.68C9.80251 33.4211 9.44252 32.3493 9.05107 31.4418C8.07209 29.1383 7.90818 25.44 8.75693 22.7794C8.98522 22.098 9.96567 19.9566 9.57422 19.308C9.37667 18.6914 8.72547 18.3351 8.36548 17.8479C7.94111 17.2313 7.48527 16.4532 7.19114 15.7719C6.40824 13.954 6.01679 11.9435 5.16732 10.1264C4.7744 9.28286 4.08956 8.40666 3.53421 7.62861C2.91375 6.7524 2.22962 6.13579 1.7394 5.09815C1.57624 4.73458 1.34795 4.15723 1.60916 3.76748C1.67355 3.50789 1.80525 3.40391 2.065 3.34573C2.48937 2.98216 3.6981 3.44317 4.12248 3.63659C5.32975 4.12378 6.34166 4.57752 7.35357 5.25812C7.81087 5.58243 8.3011 6.19905 8.88864 6.36193H9.57495C10.6198 6.5888 11.7941 6.43464 12.7724 6.7255C14.5028 7.27813 16.0693 8.08817 17.4742 8.9651C21.7501 11.6577 25.2768 15.4861 27.6591 20.0613C28.0506 20.8074 28.2137 21.4887 28.5737 22.2675C29.26 23.8577 30.1088 25.4793 30.7929 27.0375C31.4792 28.5624 32.1319 30.1206 33.1109 31.3859C33.6011 32.0672 35.5591 32.4235 36.44 32.7805C37.0934 33.0714 38.1046 33.3331 38.6936 33.6894C39.8028 34.3708 40.9128 35.1496 41.9569 35.8956C42.4786 36.2839 44.1117 37.0954 44.209 37.7425L44.2127 37.7251ZM10.9212 9.53227C10.4702 9.52831 10.0206 9.58282 9.58373 9.69443V9.76714H9.64812C9.90933 10.2863 10.3666 10.6433 10.693 11.0978L11.4444 12.6554L11.5088 12.5826C11.9661 12.2583 12.1951 11.7392 12.1951 10.9611C11.999 10.7342 11.9668 10.5066 11.8036 10.2798C11.6076 9.95547 11.1832 9.79259 10.9212 9.53373V9.53227Z" fill="white"/>
</g>
<defs>
<clipPath id="clip0_83_167">
<rect width="48" height="48" fill="white" transform="translate(0 0.33606)"/>
</clipPath>
</defs>
</svg>
