<svg width="48" height="49" viewBox="0 0 48 49" fill="none" xmlns="http://www.w3.org/2000/svg">
<g clip-path="url(#clip0_83_162)">
<path d="M36 31.8361V13.8361H33V34.8361H45V31.8361H36Z" fill="white"/>
<path d="M27 13.8361H21C20.2044 13.8361 19.4413 14.1521 18.8787 14.7147C18.3161 15.2773 18 16.0404 18 16.8361V31.8361C18 32.6317 18.3161 33.3948 18.8787 33.9574C19.4413 34.52 20.2044 34.8361 21 34.8361H22.5V37.8361C22.5 38.6317 22.8161 39.3948 23.3787 39.9574C23.9413 40.52 24.7044 40.8361 25.5 40.8361H28.5V37.8361H25.5V34.8361H27C27.7956 34.8361 28.5587 34.52 29.1213 33.9574C29.6839 33.3948 30 32.6317 30 31.8361V16.8361C30 16.0404 29.6839 15.2773 29.1213 14.7147C28.5587 14.1521 27.7956 13.8361 27 13.8361ZM21 31.8361V16.8361H27V31.8361H21Z" fill="white"/>
<path d="M12 34.8361H3V31.8361H12V25.8361H6C5.20435 25.8361 4.44129 25.52 3.87868 24.9574C3.31607 24.3948 3 23.6317 3 22.8361V16.8361C3 16.0404 3.31607 15.2773 3.87868 14.7147C4.44129 14.1521 5.20435 13.8361 6 13.8361H15V16.8361H6V22.8361H12C12.7956 22.8361 13.5587 23.1521 14.1213 23.7147C14.6839 24.2773 15 25.0404 15 25.8361V31.8361C15 32.6317 14.6839 33.3948 14.1213 33.9574C13.5587 34.52 12.7956 34.8361 12 34.8361Z" fill="white"/>
</g>
<defs>
<clipPath id="clip0_83_162">
<rect width="48" height="48" fill="white" transform="translate(0 0.33606)"/>
</clipPath>
</defs>
</svg>
