<svg width="48" height="39" viewBox="0 0 48 39" fill="none" xmlns="http://www.w3.org/2000/svg">
<g clip-path="url(#clip0_83_182)">
<path d="M47.219 15.8219C46.0423 15.0274 42.95 14.6881 40.7019 15.2954C40.5807 13.0494 39.4262 11.1567 37.3139 9.50534L36.5319 8.97885L36.0108 9.76826C34.9864 11.328 34.5548 13.4059 34.7078 15.2948C34.8284 16.4585 35.2321 17.7668 36.0108 18.716C33.0849 20.4183 30.388 20.0319 18.4442 20.0319H0.00352962C-0.0504201 22.7369 0.383082 27.9406 3.68226 32.1767C4.04658 32.6446 4.44645 33.0973 4.87995 33.5334C7.5622 36.2276 11.6148 38.203 17.6749 38.2087C26.92 38.217 34.8411 33.2049 39.6591 21.0855C41.2446 21.1116 45.4298 21.3707 47.478 17.4007C47.5281 17.3339 47.9991 16.3478 47.9991 16.3478L47.2184 15.8213L47.219 15.8219ZM12.0381 13.348H6.8526V18.5492H12.0381V13.348ZM18.7374 13.348H13.5519V18.5492H18.7374V13.348ZM25.4367 13.348H20.2512V18.5492H25.4367V13.348ZM32.136 13.348H26.9505V18.5492H32.136V13.348ZM5.33884 13.348H0.153319V18.5492H5.33884V13.348ZM12.0381 6.77868H6.8526V11.9799H12.0381V6.77868ZM18.7374 6.77868H13.5519V11.9799H18.7374V6.77868ZM25.4367 6.77868H20.2512V11.9799H25.4367V6.77868ZM25.4367 0.20874H20.2512V5.40995H25.4367V0.20874Z" fill="white"/>
</g>
<defs>
<clipPath id="clip0_83_182">
<rect width="48" height="38" fill="white" transform="translate(0 0.20874)"/>
</clipPath>
</defs>
</svg>
