<svg width="48" height="49" viewBox="0 0 48 49" fill="none" xmlns="http://www.w3.org/2000/svg">
<path d="M45.642 22.2033L25.9995 2.56234C25.4745 2.03884 24.7499 1.71484 23.9489 1.71484C23.1479 1.71484 22.4234 2.03884 21.8984 2.56234L17.8289 6.63934L23.0024 11.8128C23.3324 11.6973 23.712 11.6313 24.108 11.6313C26.0115 11.6313 27.5535 13.1733 27.5535 15.0768C27.5535 15.4803 27.4845 15.8658 27.357 16.2258L27.3645 16.2018L32.3475 21.1878C32.6805 21.0693 33.066 21.0003 33.4665 21.0003C35.3685 21.0003 36.9105 22.5423 36.9105 24.4443C36.9105 26.3463 35.3685 27.8883 33.4665 27.8883C31.5645 27.8883 30.0225 26.3463 30.0225 24.4443C30.0225 23.9748 30.117 23.5278 30.2865 23.1198L30.2775 23.1423L25.6125 18.5013V30.7323C26.7585 31.3099 27.531 32.4768 27.531 33.8238C27.531 35.7288 25.986 37.2738 24.081 37.2738C22.176 37.2738 20.6309 35.7288 20.6309 33.8238C20.6309 32.8728 21.0149 32.0133 21.6374 31.3893C21.9539 31.0728 22.3305 30.8163 22.749 30.6363L22.7715 30.6273V18.2763C21.5084 17.7453 20.6384 16.5168 20.6384 15.0873C20.6384 14.6073 20.736 14.1513 20.913 13.7358L20.9039 13.7583L15.8204 8.65084L2.35045 22.1118C1.82845 22.6383 1.50745 23.3628 1.50745 24.1638C1.50745 24.9648 1.82995 25.6893 2.35195 26.2158L21.9959 45.8539C22.5194 46.3789 23.2439 46.7029 24.045 46.7029C24.846 46.7029 25.569 46.3789 26.094 45.8539L45.645 26.3028C46.17 25.7793 46.4955 25.0533 46.4955 24.2538C46.4955 23.4543 46.17 22.7283 45.645 22.2048L45.642 22.2033Z" fill="white"/>
</svg>
