<svg width="48" height="49" viewBox="0 0 48 49" fill="none" xmlns="http://www.w3.org/2000/svg">
<path d="M16.8721 20.5768V20.2721C16.8721 19.4998 17.4907 18.8593 18.288 18.806L24.0949 18.4183L32.1255 30.244V19.8649L30.0585 19.5893V19.4447C30.0585 18.6632 30.6912 18.0185 31.4986 17.9771L36.7824 17.7065V18.4669C36.7824 18.8237 36.5169 19.1291 36.1531 19.1906L34.8816 19.4057V36.2143L33.2859 36.763C31.9527 37.2215 30.4686 36.7307 29.7054 35.5792L21.9091 23.8145V35.0432L24.3087 35.5024L24.2754 35.725C24.1705 36.4222 23.5686 36.9496 22.8405 36.982L16.8721 37.2476C16.7932 36.4978 17.3551 35.8271 18.1303 35.7457L18.9154 35.6632V20.6915L16.8721 20.5768Z" fill="white"/>
<path fill-rule="evenodd" clip-rule="evenodd" d="M31.0124 4.65891L7.08521 6.29252C5.65199 6.39038 4.54102 7.54262 4.54102 8.93123V32.2036C4.54102 33.5083 4.99015 34.7759 5.81765 35.8069L10.9767 42.2338C11.8108 43.2728 13.1235 43.8451 14.4815 43.7615L41.0379 42.1268C42.399 42.043 43.4586 40.9516 43.4586 39.6335V13.1751C43.4586 12.3596 43.0469 11.5955 42.3554 11.128L33.9488 5.44418C33.092 4.86494 32.0553 4.58771 31.0124 4.65891ZM8.27171 9.29424C7.93892 9.04785 8.09731 8.53457 8.51536 8.50458L31.1733 6.87941C31.8953 6.82763 32.6126 7.02642 33.1964 7.44006L37.7426 10.6609C37.9151 10.7832 37.8342 11.0472 37.6205 11.0588L13.6258 12.3638C12.8997 12.4033 12.1829 12.1899 11.6055 11.7625L8.27171 9.29424ZM12.5004 16.4548C12.5004 15.6752 13.1301 15.0314 13.9354 14.9875L39.3045 13.6059C40.0895 13.5632 40.7501 14.1668 40.7501 14.9265V37.8367C40.7501 38.6147 40.1226 39.2579 39.3189 39.3037L14.1103 40.738C13.2369 40.7878 12.5004 40.1165 12.5004 39.271V16.4548Z" fill="white"/>
</svg>
