<svg width="48" height="49" viewBox="0 0 48 49" fill="none" xmlns="http://www.w3.org/2000/svg">
<path d="M24.0002 15.019C22.1071 15.019 20.2565 15.5804 18.6824 16.6322C17.1083 17.684 15.8814 19.1789 15.157 20.9279C14.4325 22.677 14.2429 24.6015 14.6123 26.4583C14.9816 28.3151 15.8932 30.0206 17.2319 31.3593C18.5705 32.6979 20.2761 33.6095 22.1328 33.9789C23.9896 34.3482 25.9142 34.1586 27.6632 33.4342C29.4123 32.7097 30.9072 31.4829 31.9589 29.9088C33.0107 28.3347 33.5721 26.4841 33.5721 24.5909C33.5689 22.0533 32.5594 19.6205 30.765 17.8261C28.9706 16.0318 26.5379 15.0223 24.0002 15.019Z" fill="white"/>
<path d="M37.743 15.8692C40.1516 15.8692 42.1042 13.9166 42.1042 11.508C42.1042 9.09933 40.1516 7.14673 37.743 7.14673C35.3343 7.14673 33.3817 9.09933 33.3817 11.508C33.3817 13.9166 35.3343 15.8692 37.743 15.8692Z" fill="white"/>
<path d="M43.112 15.8909L42.9292 15.4896L42.6376 15.8196C41.9233 16.6308 41.0197 17.253 40.007 17.6309L39.7257 17.734L39.8401 18.0087C40.7118 20.0935 41.1592 22.3312 41.1564 24.5909C41.1564 34.0521 33.4595 41.7471 24.0001 41.7471C14.5407 41.7471 6.84387 34.0521 6.84387 24.5909C6.84387 15.1296 14.5389 7.43461 24.0001 7.43461C26.5445 7.4293 29.0575 7.99642 31.3529 9.09399L31.622 9.21587L31.7392 8.94212C32.1666 7.94967 32.8318 7.07775 33.6761 6.40336L34.0201 6.12868L33.6292 5.93461C30.6555 4.38808 27.3519 3.58395 24.0001 3.59086C12.4211 3.59086 3.00012 13.0118 3.00012 24.5909C3.00012 36.1699 12.4211 45.5909 24.0001 45.5909C35.5792 45.5909 45.0001 36.1699 45.0001 24.5909C45.0051 21.5887 44.361 18.6209 43.112 15.8909Z" fill="white"/>
</svg>
