<svg width="48" height="49" viewBox="0 0 48 49" fill="none" xmlns="http://www.w3.org/2000/svg">
<path d="M21.4694 33.9073C22.2944 33.9448 23.1374 33.9718 23.9909 33.9718C24.8534 33.9718 25.7054 33.9538 26.5409 33.9073C25.7054 34.9873 24.8804 35.9428 24.0074 36.8533L24.0194 36.8413C23.1509 35.9413 22.3169 34.9843 21.5309 33.9883L21.4694 33.9073ZM12.9224 32.7073C14.5469 33.1198 16.5284 33.4708 18.5504 33.6868L18.7469 33.7033C19.9844 35.4028 21.2354 36.8983 22.5779 38.3053L22.5614 38.2873C20.5949 40.4818 17.9414 42.0238 14.9399 42.5773L14.8574 42.5893C14.8514 42.5893 14.8454 42.5893 14.8394 42.5893C14.4674 42.5893 14.1164 42.4978 13.8089 42.3358L13.8209 42.3418C12.5729 41.6293 12.0314 38.9038 12.4529 35.4013C12.5534 34.5388 12.7184 33.6313 12.9209 32.7058L12.9224 32.7073ZM35.0969 32.6878C35.2739 33.3988 35.4404 34.3048 35.5589 35.2258L35.5724 35.3548C36.0029 38.8558 35.4719 41.5783 34.2344 42.3058C33.9584 42.4588 33.6284 42.5488 33.2774 42.5488C33.2429 42.5488 33.2084 42.5473 33.1739 42.5458H33.1784C30.0989 41.9833 27.4469 40.4518 25.4849 38.2843L25.4744 38.2723C26.7929 36.8878 28.0349 35.3953 29.1734 33.8248L29.2604 33.6988C31.4744 33.4678 33.4589 33.1108 35.3924 32.6233L35.0969 32.6863V32.6878ZM14.6759 27.0898C15.0509 27.8248 15.4439 28.5568 15.8759 29.2918C16.3069 30.0228 16.7474 30.7368 17.1974 31.4338C15.8954 31.2433 14.6384 31.0033 13.4369 30.7108C13.7744 29.5303 14.1974 28.3078 14.6744 27.0868L14.6759 27.0898ZM33.3179 27.0523C33.8144 28.2838 34.2359 29.5123 34.5854 30.7033C33.3854 30.9973 32.1179 31.2463 30.8069 31.4338C31.2569 30.7303 31.7069 30.0058 32.1284 29.2633C32.5499 28.5328 32.9444 27.7858 33.3209 27.0508L33.3179 27.0523ZM11.4284 19.0288C12.0824 21.2458 12.7844 23.0998 13.6019 24.8878L13.4894 24.6148C12.7904 26.1223 12.0989 27.9658 11.5319 29.8633L11.4539 30.1708C10.3949 29.8453 9.54295 29.5258 8.71345 29.1673L8.88595 29.2333C5.63995 27.8518 3.53995 26.0353 3.53995 24.5953C3.53995 23.1553 5.63995 21.3298 8.88595 19.9543C9.67344 19.6168 10.5374 19.3123 11.4284 19.0288ZM36.5369 19.0213C37.4444 19.3018 38.3069 19.6153 39.1139 19.9543C42.3599 21.3418 44.4599 23.1553 44.4599 24.5953C44.4509 26.0353 42.3509 27.8563 39.1049 29.2348C38.3174 29.5723 37.4549 29.8753 36.5654 30.1588C35.9054 27.9343 35.2034 26.0818 34.3889 24.2908L34.5029 24.5728C35.1989 23.0668 35.8919 21.2233 36.4574 19.3258L36.5369 19.0168V19.0213ZM30.7949 17.7568C32.0984 17.9503 33.3539 18.1873 34.5554 18.4828C34.2179 19.6678 33.7964 20.8858 33.3179 22.1068C32.9429 21.3763 32.5499 20.6398 32.1179 19.9063C31.6964 19.1713 31.2464 18.4558 30.7964 17.7583L30.7949 17.7568ZM17.1869 17.7568C16.7369 18.4633 16.2869 19.1863 15.8669 19.9318C15.4454 20.6623 15.0509 21.3973 14.6759 22.1323C14.1794 20.9023 13.7579 19.6768 13.4084 18.4828C14.6084 18.2023 15.8729 17.9518 17.1854 17.7598L17.1869 17.7568ZM23.9999 17.2798C25.3874 17.2798 26.7689 17.3428 28.1279 17.4538C28.8889 18.5448 29.6279 19.7068 30.3449 20.9398C31.0419 22.1398 31.6779 23.3558 32.2529 24.5878C31.6754 25.8163 31.0424 27.0433 30.3539 28.2433C29.6414 29.4808 28.9049 30.6583 28.1414 31.7488C26.7764 31.8673 25.3934 31.9318 23.9984 31.9318C22.6109 31.9318 21.2294 31.8658 19.8704 31.7578C19.1099 30.6673 18.3674 29.5003 17.6534 28.2718C16.9564 27.0718 16.3204 25.8558 15.7454 24.6238C16.3139 23.3923 16.9559 22.1623 17.6444 20.9608C18.3569 19.7233 19.0934 18.5503 19.8569 17.4598C21.2219 17.3398 22.6049 17.2768 23.9999 17.2768V17.2798ZM23.9714 12.3583C24.8414 13.2583 25.6754 14.2138 26.4599 15.2098L26.5199 15.2893C25.6949 15.2518 24.8519 15.2263 23.9984 15.2263C23.1359 15.2263 22.2839 15.2443 21.4484 15.2893C22.2824 14.2093 23.1074 13.2538 23.9819 12.3433L23.9699 12.3553L23.9714 12.3583ZM14.8199 6.64026C17.8994 7.20426 20.5499 8.73576 22.5134 10.9018L22.5239 10.9138C21.2054 12.2998 19.9634 13.7923 18.8249 15.3658L18.7379 15.4918C16.5254 15.7213 14.5409 16.0753 12.6089 16.5628L12.9029 16.4998C12.6929 15.5818 12.5369 14.6923 12.4274 13.8388C11.9969 10.3378 12.5279 7.61526 13.7654 6.89076C14.0744 6.74526 14.4359 6.65526 14.8169 6.64326H14.8214L14.8199 6.64026ZM33.1349 6.60276V6.61476C33.1544 6.61476 33.1769 6.61326 33.2009 6.61326C33.5594 6.61326 33.8969 6.70176 34.1939 6.85776L34.1819 6.85176C35.4299 7.56726 35.9714 10.2913 35.5499 13.7953C35.4494 14.6578 35.2844 15.5668 35.0819 16.4938C33.4544 16.0768 31.4729 15.7243 29.4509 15.5098L29.2589 15.4933C28.0199 13.7923 26.7689 12.2968 25.4264 10.8883L25.4444 10.9063C27.4109 8.71626 30.0599 7.17426 33.0554 6.61776L33.1394 6.60426L33.1349 6.60276ZM33.1439 4.55976C29.4809 5.11626 26.3099 6.89526 23.9939 9.46176L23.9819 9.47526C21.6494 6.91026 18.4784 5.14326 14.9054 4.60776L14.8214 4.59726C14.8019 4.59726 14.7779 4.59726 14.7539 4.59726C14.0174 4.59726 13.3259 4.79076 12.7274 5.12976L12.7484 5.11926C10.1714 6.60576 9.59395 11.2378 10.9244 17.0503C5.21845 18.8128 1.50745 21.6298 1.50745 24.5983C1.50745 27.5788 5.23795 30.4033 10.9604 32.1523C9.64045 37.9873 10.2299 42.6268 12.8129 44.1118C13.3799 44.4373 14.0609 44.6278 14.7854 44.6278C14.8184 44.6278 14.8514 44.6278 14.8829 44.6263H14.8784C18.5414 44.0698 21.7124 42.2893 24.0284 39.7213L24.0404 39.7078C26.3729 42.2743 29.5439 44.0413 33.1169 44.5768L33.2009 44.5873C33.2234 44.5873 33.2519 44.5873 33.2789 44.5873C34.0109 44.5873 34.6994 44.3953 35.2949 44.0608L35.2739 44.0713C37.8494 42.5863 38.4284 37.9543 37.0979 32.1403C42.7829 30.3928 46.4939 27.5698 46.4939 24.5968C46.4939 21.6163 42.7634 18.7918 37.0409 17.0383C38.3609 11.2093 37.7714 6.56526 35.1884 5.07876C34.6154 4.75026 33.9284 4.55676 33.1964 4.55676C33.1769 4.55676 33.1574 4.55676 33.1379 4.55676H33.1409L33.1439 4.55976ZM28.1804 24.5983C28.1804 26.9128 26.3039 28.7893 23.9894 28.7893C21.6749 28.7893 19.7984 26.9128 19.7984 24.5983C19.7984 22.2838 21.6749 20.4073 23.9894 20.4073C25.1474 20.4073 26.1944 20.8768 26.9534 21.6343C27.7124 22.3933 28.1804 23.4403 28.1804 24.5983Z" fill="white"/>
</svg>
