<svg width="48" height="49" viewBox="0 0 48 49" fill="none" xmlns="http://www.w3.org/2000/svg">
<g clip-path="url(#clip0_83_121)">
<path d="M33.6768 33.7012C35.3914 33.5303 36.72 32.0941 36.72 30.3488C36.72 30.2797 36.7181 30.2106 36.7143 30.1415V30.1511C36.624 28.3021 35.113 26.8372 33.2563 26.818H33.1315C31.273 26.8871 29.7927 28.4096 29.7927 30.2778C29.7927 30.32 29.7927 30.3623 29.7946 30.4064V30.4007C29.8445 31.3088 30.217 32.1229 30.7968 32.7373L30.7949 32.7354C28.5159 36.9863 25.033 40.3386 20.8032 42.3949L20.6707 42.4525C18.3821 43.7197 15.6519 44.4647 12.7469 44.4647C12.0115 44.4647 11.2858 44.4167 10.5773 44.3245L10.6618 44.3341C8.04867 44.0826 5.79843 42.7136 4.36995 40.7168L4.35267 40.69C3.32163 39.2404 2.70531 37.4356 2.70531 35.4848C2.70531 33.8778 3.12387 32.3687 3.85923 31.0592L3.83619 31.1053C4.88643 29.1162 6.31875 27.4612 8.04867 26.1863L8.08899 26.1594C7.76067 25.2896 7.46691 24.2413 7.25955 23.1642L7.23843 23.0375C-1.75293 29.4676 -0.840933 38.2631 1.88931 42.4199C4.27587 45.465 7.95459 47.4042 12.0864 47.4042C12.2746 47.4042 12.4608 47.4004 12.6471 47.3927H12.6202C12.6874 47.3946 12.768 47.3946 12.8487 47.3946C14.0909 47.3946 15.2986 47.2506 16.4583 46.9799L16.3507 47.001C24.0461 45.5917 30.3475 40.6324 33.5808 33.9181L33.6423 33.776L33.6768 33.7012Z" fill="white"/>
<path d="M44.5058 26.1249C39.892 20.8641 33.1586 17.5617 25.6514 17.5617C25.4229 17.5617 25.1925 17.5656 24.9659 17.5713H25.0005H23.9675C23.4242 16.4827 22.3163 15.7473 21.0376 15.7473C20.9992 15.7473 20.9627 15.7473 20.9243 15.7492H20.9301H20.8552C19.0005 15.7761 17.5067 17.2852 17.5067 19.1438C17.5067 19.1995 17.5086 19.2532 17.5106 19.307V19.2993C17.597 21.1483 19.108 22.6171 20.9666 22.6363H21.1182C22.4891 22.5825 23.6469 21.73 24.1461 20.5358L24.1538 20.5128H25.277C30.1806 20.5185 34.731 22.0238 38.4942 24.5985L38.4136 24.5467C41.3531 26.4283 43.6226 29.1316 44.9262 32.3323L44.9666 32.4436C45.4658 33.4843 45.7557 34.7054 45.7557 35.9937C45.7557 37.3569 45.4312 38.6433 44.8533 39.78L44.8744 39.732C43.3826 42.7771 40.3067 44.8353 36.7509 44.8353C36.6203 44.8353 36.4917 44.8334 36.363 44.8276H36.3822C34.1992 44.7816 32.139 44.3016 30.2709 43.4702L30.3707 43.5105C29.643 44.1172 28.4296 45.1156 27.5483 45.7243C29.8792 46.8686 32.6133 47.5656 35.5029 47.6328H35.5259C35.6392 47.6366 35.7717 47.6385 35.9042 47.6385C40.804 47.6385 45.0952 45.0369 47.4741 41.1412L47.5086 41.0817C48.1653 39.5246 48.5454 37.716 48.5454 35.8171C48.5454 32.0155 47.0171 28.571 44.5422 26.0654L44.5442 26.0673L44.5154 26.1288L44.5058 26.1249Z" fill="white"/>
<path d="M13.1408 34.7975C13.2252 36.6484 14.7401 38.121 16.6025 38.1345H16.7254C18.584 38.0711 20.0681 36.5466 20.0681 34.6785C20.0681 32.7777 18.534 31.234 16.6352 31.2205H16.5065C16.4873 31.2186 16.4643 31.2186 16.4432 31.2186C16.303 31.2186 16.1686 31.2397 16.0419 31.282L16.0515 31.2801C13.9971 27.9373 12.7817 23.8881 12.7817 19.5546C12.7817 18.8557 12.8124 18.1645 12.8758 17.4829L12.87 17.5713C13.0448 13.9117 14.3888 10.5959 16.5315 7.95782L16.5084 7.98854C18.4112 5.93222 21.0915 4.62278 24.0809 4.52678H24.0982C30.6492 4.4039 33.3814 12.5677 33.5926 15.8125L36.63 16.7207C35.9235 6.77318 29.7372 1.55078 23.8217 1.55078C17.8083 1.86374 12.8182 5.90918 11.1075 11.4023L11.0806 11.5021C10.2396 13.9252 9.75195 16.7169 9.75195 19.6218C9.75195 24.5908 11.1747 29.2276 13.6323 33.1463L13.5708 33.0407C13.2963 33.4554 13.1331 33.9642 13.1331 34.5114C13.1331 34.6132 13.1388 34.713 13.1504 34.8109L13.1484 34.7994L13.1408 34.7975Z" fill="white"/>
</g>
<defs>
<clipPath id="clip0_83_121">
<rect width="48" height="48" fill="white" transform="translate(0 0.59082)"/>
</clipPath>
</defs>
</svg>
