<svg width="48" height="49" viewBox="0 0 48 49" fill="none" xmlns="http://www.w3.org/2000/svg">
<g clip-path="url(#clip0_83_115)">
<path d="M41.2994 27.2848C41.3579 27.2833 41.4269 27.2818 41.4974 27.2818C42.7484 27.2818 43.9319 27.5728 44.9819 28.0918L44.9354 28.0708C45.8924 28.5373 46.6784 29.2273 47.2469 30.0733L47.2604 30.0943C47.7089 30.7483 47.9759 31.5568 47.9759 32.4268C47.9759 32.4898 47.9744 32.5528 47.9714 32.6143V32.6053C47.9249 33.4738 47.5304 34.2403 46.9244 34.7773L46.9214 34.7803C46.5899 35.1058 46.1894 35.3608 45.7439 35.5228L45.7214 35.5303C45.4714 35.5803 45.3339 35.5428 45.3089 35.4178C45.2839 35.2928 45.3964 35.1553 45.6464 35.0053C46.3244 34.5943 46.8149 33.9313 46.9934 33.1498L46.9979 33.1303C47.0024 33.0673 47.0054 32.9938 47.0054 32.9188C47.0054 32.4523 46.8944 32.0113 46.6979 31.6213L46.7054 31.6378C46.3799 30.9583 45.8939 30.4003 45.2954 29.9968L45.2804 29.9878C44.3849 29.4118 43.3109 29.0338 42.1559 28.9393L42.1319 28.9378C41.7389 28.8793 41.2859 28.8463 40.8239 28.8463C39.6224 28.8463 38.4749 29.0728 37.4189 29.4853L37.4819 29.4628C37.6994 29.9713 37.8359 30.5608 37.8554 31.1788V31.1863C37.8314 32.4538 37.1504 33.5563 36.1379 34.1713L36.1214 34.1803C35.6564 34.5103 35.1254 34.7998 34.5599 35.0248L34.5074 35.0428C34.1639 35.2108 33.7604 35.3083 33.3344 35.3083C33.2849 35.3083 33.2369 35.3068 33.1889 35.3038H33.1964C32.2474 35.1048 32.0224 34.2798 32.5214 32.8288C32.7389 32.1973 33.0434 31.6498 33.4289 31.1683L33.4199 31.1788C33.9134 30.5338 34.4549 29.9683 35.0534 29.4673L35.0699 29.4538L34.9229 29.2348C34.6484 28.7668 34.3964 28.2223 34.1939 27.6538L34.1729 27.5848C34.0229 27.0848 33.8979 26.6103 33.7979 26.1613L33.7229 25.6363L32.9729 27.0598C32.3229 28.2598 31.6979 29.3093 31.0979 30.2083L30.8729 30.5833C31.1249 31.1953 31.3109 31.9048 31.3949 32.6458L31.3979 32.6833C31.4039 32.7538 31.4069 32.8378 31.4069 32.9218C31.4069 34.0588 30.8459 35.0638 29.9849 35.6773L29.9744 35.6848C29.5634 35.9383 29.0729 36.2008 28.5644 36.4348L28.4744 36.4723C27.9449 36.7018 27.3314 36.8518 26.6879 36.8848H26.6744C26.6249 36.8878 26.5664 36.8908 26.5079 36.8908C26.1329 36.8908 25.7774 36.8053 25.4594 36.6538L25.4744 36.6598C25.2839 36.4963 25.1639 36.2563 25.1639 35.9878C25.1639 35.8513 25.1954 35.7208 25.2509 35.6053L25.2479 35.6113C25.8479 34.7698 26.4389 34.0378 27.0674 33.3388L27.0479 33.3613L28.6979 31.2628L28.3994 30.5878C28.1594 30.1468 27.9299 29.6263 27.7454 29.0863L27.7244 29.0143C27.5744 28.5143 27.4494 28.0398 27.3494 27.5908L27.2744 27.0658L26.5244 28.8658C25.9254 30.2648 25.3754 31.4643 24.8744 32.4643C24.1274 33.9643 23.5024 35.1143 22.9994 35.9143L22.8494 36.1393C22.2504 37.0883 21.6754 37.5628 21.1244 37.5628C20.5734 37.5628 20.1999 37.2128 20.0039 36.5128C19.8599 35.9968 19.7759 35.4043 19.7759 34.7923C19.7759 34.7383 19.7759 34.6843 19.7774 34.6303V34.6378L19.9274 33.5878V33.6628C19.5274 34.6118 19.1274 35.4863 18.7274 36.2863C18.4619 36.8053 18.1889 37.2478 17.8829 37.6648L17.9024 37.6363C17.5934 37.9603 17.1584 38.1613 16.6769 38.1613C16.6724 38.1613 16.6694 38.1613 16.6649 38.1613C16.6334 38.1643 16.5974 38.1643 16.5614 38.1643C16.1819 38.1643 15.8369 38.0203 15.5759 37.7848L15.5774 37.7863C15.0539 37.2493 14.6654 36.5788 14.4644 35.8303L14.4569 35.7988C14.2109 35.1163 14.0699 34.3273 14.0699 33.5053C14.0699 33.3988 14.0729 33.2938 14.0774 33.1903V33.2053C14.1959 32.0113 14.4344 30.9178 14.7839 29.8753L14.7524 29.9818L12.0539 31.5568V31.6318C12.4454 32.4448 12.6749 33.3988 12.6749 34.4068C12.6749 34.5913 12.6674 34.7743 12.6524 34.9543L12.6539 34.9303C12.5744 36.4753 12.0809 37.8898 11.2844 39.0853L11.3039 39.0553C10.4684 40.3813 9.26391 41.4058 7.83291 41.9983L7.78341 42.0163C6.97791 42.3778 6.03591 42.5893 5.04591 42.5893C4.41891 42.5893 3.80991 42.5053 3.23391 42.3463L3.28191 42.3568C2.80491 42.1963 2.41491 41.8783 2.16741 41.4673L2.16291 41.4583C1.81341 40.9513 1.59291 40.3318 1.55841 39.6643V39.6553C1.54191 39.5038 1.53291 39.3283 1.53291 39.1498C1.53291 38.3803 1.70841 37.6513 2.02191 37.0018L2.00841 37.0318C2.86941 35.5633 4.06041 34.3738 5.48241 33.5368L5.52741 33.5128C6.53391 32.8153 7.69041 32.1388 8.89791 31.5493L9.05691 31.4788L9.43191 31.2538C8.98191 30.9038 8.15691 30.3038 6.95691 29.4538C5.35341 28.3798 3.95991 27.2953 2.64591 26.1223L2.68341 26.1553C1.41291 25.0618 0.487413 23.6008 0.0719131 21.9373L0.0599131 21.8803C0.0209131 21.6493 -0.00158691 21.3838 -0.00158691 21.1138C-0.00158691 20.2678 0.215913 19.4728 0.596913 18.7813L0.584913 18.8068C1.42491 17.0008 2.58891 15.4783 4.01691 14.2543L4.03491 14.2393C5.57991 12.7798 7.32891 11.5093 9.22791 10.4803L9.35841 10.4158C11.0549 9.43632 13.0364 8.52582 15.1019 7.79532L15.3569 7.71732C17.2754 7.01532 19.4909 6.60432 21.8009 6.59682H21.8039C21.9089 6.59382 22.0334 6.59082 22.1579 6.59082C24.0194 6.59082 25.7804 7.02132 27.3464 7.78782L27.2774 7.75632C28.6274 8.37132 29.6384 9.52932 30.0434 10.9453L30.0524 10.9813C30.1769 11.4643 30.2474 12.0193 30.2474 12.5908C30.2474 13.5388 30.0509 14.4418 29.6984 15.2608L29.7149 15.2173C29.0729 16.7728 28.1594 18.0973 27.0194 19.1878L27.0149 19.1923C25.8599 20.3368 24.4754 21.2518 22.9379 21.8623L22.8554 21.8908C21.2444 22.5823 19.3739 23.0173 17.4104 23.0893L17.3819 23.0908C17.0939 23.1238 16.7609 23.1418 16.4234 23.1418C15.5354 23.1418 14.6789 23.0143 13.8689 22.7758L13.9334 22.7923C13.2089 22.5613 12.5834 22.2028 12.0524 21.7378L12.0584 21.7423C11.6864 21.4393 11.3834 21.0658 11.1674 20.6413L11.1584 20.6218C11.0084 20.2218 10.9959 19.9843 11.1209 19.9093C11.2459 19.8343 11.3334 19.8218 11.3834 19.8718L11.7584 20.2468C12.1769 20.6353 12.6764 20.9413 13.2284 21.1363L13.2584 21.1453C14.0174 21.4093 14.8934 21.5623 15.8039 21.5623C16.0964 21.5623 16.3844 21.5473 16.6679 21.5158L16.6334 21.5188C19.0604 21.2323 21.2489 20.4043 23.1374 19.1593L23.0819 19.1938C24.6779 18.2443 25.9694 16.9393 26.8784 15.3838L26.9054 15.3328C27.3569 14.6698 27.6269 13.8508 27.6269 12.9688C27.6269 12.4273 27.5249 11.9083 27.3389 11.4313L27.3494 11.4598C26.7884 10.5733 25.8809 9.94932 24.8219 9.77682L24.8009 9.77382C23.9789 9.57132 23.0339 9.45432 22.0634 9.45432C21.2819 9.45432 20.5169 9.52932 19.7774 9.67332L19.8524 9.66132C17.3219 10.1173 15.0599 10.8988 12.9734 11.9728L13.1099 11.9083C6.96191 15.0083 3.78741 18.1828 3.58641 21.4318V21.5053C3.58641 22.8148 4.10091 24.0043 4.93941 24.8833L4.93791 24.8818C5.89341 25.9438 6.94941 26.8813 8.10291 27.6913L8.16141 27.7303C9.21291 28.5163 10.1429 29.3278 11.0084 30.2038L11.0099 30.2068L11.1599 30.3568L15.9599 27.7333C16.5074 26.9413 17.1659 26.2723 17.9219 25.7323L17.9459 25.7158C18.5459 25.2118 19.3079 24.8833 20.1434 24.8173L20.1569 24.8158C20.1869 24.8128 20.2214 24.8128 20.2574 24.8128C20.8169 24.8128 21.2969 25.1503 21.5039 25.6333L21.5069 25.6423C21.6644 25.9948 21.7559 26.4073 21.7559 26.8408C21.7559 26.9728 21.7469 27.1033 21.7304 27.2323L21.7319 27.2173L21.5864 27.9568L21.8114 27.8068C21.9674 27.6883 22.1639 27.6178 22.3769 27.6178C22.5119 27.6178 22.6394 27.6463 22.7549 27.6973L22.7489 27.6943C23.0369 27.7693 23.2454 28.0273 23.2454 28.3333C23.2454 28.3858 23.2394 28.4368 23.2274 28.4863L23.2289 28.4818L23.0039 29.3068C22.5539 31.1058 22.2544 32.4053 22.1054 33.2053C22.0304 33.4648 21.9884 33.7633 21.9884 34.0723C21.9884 34.1368 21.9899 34.1998 21.9944 34.2628V34.2538C22.0194 34.5538 22.0569 34.7038 22.1069 34.7038C22.1569 34.7038 22.2564 34.5538 22.4054 34.2538L22.6304 33.7288C22.6804 33.7288 22.6804 33.7538 22.6304 33.8038L23.4554 32.0788C25.4054 27.7808 26.4549 25.3808 26.6039 24.8788L27.0539 23.4553C27.1039 23.3553 27.3039 23.2558 27.6539 23.1568C28.0094 23.0608 28.4159 23.0053 28.8359 23.0053C28.8704 23.0053 28.9049 23.0053 28.9379 23.0068H28.9334C29.6334 23.0068 29.9834 23.1818 29.9834 23.5318L29.9084 23.9068C29.7404 24.3688 29.5739 24.9463 29.4449 25.5373L29.4284 25.6318C29.3984 25.8253 29.3804 26.0473 29.3804 26.2753C29.3804 26.5783 29.4104 26.8738 29.4689 27.1603L29.4644 27.1318L29.5394 27.4303C29.6924 28.0558 29.9249 28.6048 30.2294 29.1058L30.2144 29.0803C30.8134 28.0813 31.3884 27.0568 31.9394 26.0068C32.3744 25.2823 32.7794 24.4423 33.1049 23.5633L33.1394 23.4583C33.2519 22.8928 33.3809 22.4158 33.5384 21.9508L33.5144 22.0348C33.5644 21.8848 33.7779 21.7723 34.1549 21.6973C34.5119 21.6253 34.9214 21.5848 35.3399 21.5848H35.3939H35.3909C36.0909 21.5848 36.4644 21.7598 36.5114 22.1098L36.3614 22.4083C36.1829 22.9123 36.0269 23.5183 35.9219 24.1408L35.9129 24.2083C35.8994 24.3538 35.8904 24.5218 35.8904 24.6928C35.8904 25.0513 35.9264 25.4023 35.9939 25.7413L35.9879 25.7068V26.0053C36.1604 26.6593 36.4169 27.2338 36.7529 27.7543L36.7379 27.7303L36.9629 28.2553C38.2154 27.6403 39.6884 27.2803 41.2454 27.2803H41.3039H41.3009L41.2994 27.2848ZM9.14091 38.1643C10.1834 37.0873 10.8269 35.6173 10.8269 33.9973C10.8269 33.3718 10.7309 32.7688 10.5539 32.2018L10.5659 32.2438L9.36591 32.9938C8.14191 33.6913 7.08291 34.4698 6.12441 35.3548L6.13641 35.3443C5.40891 36.0133 4.87191 36.8788 4.60791 37.8553L4.59891 37.8928C4.37391 38.8178 4.48641 39.4178 4.93641 39.6928C5.21091 39.8188 5.53341 39.8923 5.87091 39.8923C6.23991 39.8923 6.58941 39.8053 6.89691 39.6493L6.88341 39.6553C7.77441 39.3313 8.52891 38.8168 9.12891 38.1583L9.13341 38.1538L9.14091 38.1643ZM19.1864 31.2583C19.4364 30.6083 19.7114 29.8333 20.0114 28.9333C20.4114 27.7333 20.5489 27.0338 20.4239 26.8348C20.2989 26.6358 20.0614 26.6108 19.7114 26.7598C19.2944 26.9623 18.9449 27.2398 18.6659 27.5803L18.6614 27.5863C18.3494 27.9808 18.0524 28.4218 17.7884 28.8853L17.7614 28.9363C17.4584 29.4328 17.2019 30.0043 17.0234 30.6103L17.0099 30.6613C16.7204 31.4458 16.5524 32.3533 16.5524 33.2983C16.5524 33.4258 16.5554 33.5518 16.5614 33.6778V33.6598C16.6114 34.6588 16.7714 35.1963 17.0414 35.2723C17.3114 35.3483 17.6239 34.9858 17.9789 34.1848C18.3224 33.5653 18.6284 32.8453 18.8564 32.0908L18.8774 32.0098C19.0264 31.6558 19.1284 31.4053 19.1834 31.2583H19.1864ZM27.5054 35.2333C28.5449 34.7668 29.2769 33.7843 29.3789 32.6218L29.3804 32.6098V32.5348L28.5554 33.5848L27.0569 35.2348C27.0344 35.2528 27.0194 35.2798 27.0194 35.3098C27.0194 35.3398 27.0344 35.3668 27.0554 35.3848C27.1034 35.4338 27.2534 35.3838 27.5054 35.2348V35.2333ZM33.9539 33.8083C35.0879 33.4843 35.9039 32.4568 35.9039 31.2403C35.9039 31.2208 35.9039 31.2013 35.9039 31.1818V31.1848C35.8889 30.8848 35.8349 30.6028 35.7464 30.3358L35.7524 30.3583C35.1689 30.8773 34.6904 31.4983 34.3439 32.1988L34.3274 32.2333C33.8764 33.1323 33.7504 33.6563 33.9494 33.8053L33.9539 33.8083Z" fill="white"/>
</g>
<defs>
<clipPath id="clip0_83_115">
<rect width="48" height="48" fill="white" transform="translate(0 0.59082)"/>
</clipPath>
</defs>
</svg>
