<svg width="48" height="49" viewBox="0 0 48 49" fill="none" xmlns="http://www.w3.org/2000/svg">
<g clip-path="url(#clip0_83_119)">
<path d="M32.679 1.06786L32.4375 6.49036C32.43 6.79486 32.781 6.98236 33.024 6.79486L35.1405 5.19286L36.9375 6.59086C37.1715 6.74686 37.485 6.59086 37.5 6.30886L37.2975 0.793358L39.9615 0.590858C41.3445 0.496358 42.5235 1.59886 42.5235 2.98936V46.1924C42.5235 47.5679 41.3745 48.6614 40.0005 48.5909L7.79695 47.1539C6.54745 47.0999 5.53945 46.0919 5.50045 44.8334L4.00045 5.23186C3.92245 3.90436 4.93045 2.76286 6.25795 2.69236L32.6565 1.02886L32.679 1.06786ZM26.5395 19.1924C26.5395 20.1299 32.8605 19.6694 33.7185 19.0289C33.7185 12.6299 30.2805 9.24736 24 9.24736C17.703 9.24736 14.2035 12.6929 14.2035 17.8334C14.2035 26.7314 26.2035 26.8874 26.2035 31.7474C26.2035 33.1544 25.563 33.9509 24.102 33.9509C22.1805 33.9509 21.399 32.9744 21.501 29.6309C21.501 28.9124 14.2035 28.6694 13.962 29.6309C13.4235 37.6934 18.423 40.0289 24.1575 40.0289C29.7435 40.0289 34.1025 37.0529 34.1025 31.6694C34.1025 22.1309 21.9 22.3874 21.9 17.6699C21.9 15.7319 23.346 15.4739 24.1575 15.4739C25.0635 15.4739 26.658 15.6149 26.541 19.2089L26.5395 19.1924Z" fill="white"/>
</g>
<defs>
<clipPath id="clip0_83_119">
<rect width="48" height="48" fill="white" transform="translate(0 0.59082)"/>
</clipPath>
</defs>
</svg>
