<svg width="48" height="49" viewBox="0 0 48 49" fill="none" xmlns="http://www.w3.org/2000/svg">
<path fill-rule="evenodd" clip-rule="evenodd" d="M24.0001 12.6628C18.6661 12.6628 15.3341 15.3128 14.0001 20.6148C16.0001 17.9648 18.3341 16.9708 21.0001 17.6328C22.5221 18.0108 23.6101 19.1088 24.8121 20.3228C26.7741 22.3008 29.0441 24.5908 34.0001 24.5908C39.3341 24.5908 42.6661 21.9408 44.0001 16.6388C42.0001 19.2888 39.6681 20.2828 37.0001 19.6208C35.4781 19.2428 34.3901 18.1448 33.1861 16.9308C31.2261 14.9508 28.9581 12.6628 24.0001 12.6628ZM14.0001 24.5908C8.66612 24.5908 5.33412 27.2408 4.00012 32.5428C6.00012 29.8908 8.33412 28.8988 11.0001 29.5608C12.5221 29.9388 13.6101 31.0368 14.8141 32.2508C16.7741 34.2288 19.0441 36.5188 24.0021 36.5188C29.3361 36.5188 32.6681 33.8688 34.0021 28.5668C32.0021 31.2168 29.6681 32.2108 27.0021 31.5488C25.4801 31.1708 24.3921 30.0728 23.1901 28.8588C21.2261 26.8808 18.9561 24.5908 14.0001 24.5908Z" fill="white"/>
</svg>
