<svg width="48" height="49" viewBox="0 0 48 49" fill="none" xmlns="http://www.w3.org/2000/svg">
<g clip-path="url(#clip0_83_141)">
<path fill-rule="evenodd" clip-rule="evenodd" d="M5.53788 24.8639C5.59788 27.9614 5.96988 30.8369 6.65538 33.4889C7.33938 36.1394 8.39538 38.4494 9.82788 40.4159C11.2574 42.3809 13.1054 43.9304 15.3689 45.0629C17.6339 46.1954 20.4044 46.7609 23.6789 46.7609C28.5089 46.7609 32.5139 45.4949 35.7029 42.9629C38.8904 40.4279 40.8719 36.6329 41.6459 31.5674H43.4339C42.7784 36.9299 40.6634 41.0849 37.0889 44.0354C33.5129 46.9844 29.1029 48.4604 23.8589 48.4604C20.2844 48.5204 17.2289 47.9534 14.6984 46.7609C12.1634 45.5699 10.0934 43.8854 8.48538 41.7104C6.87588 39.5354 5.68488 36.9734 4.91088 34.0244C4.13688 31.0754 3.74988 27.9044 3.74988 24.5054C3.74988 20.6924 4.31538 17.2964 5.44788 14.3174C6.58038 11.3384 8.06988 8.81838 9.91788 6.76338C11.7599 4.70838 13.9049 3.14838 16.3499 2.07438C18.7949 1.00038 21.2969 0.463379 23.8589 0.463379C27.4334 0.463379 30.5189 1.14888 33.1094 2.51838C35.7014 3.88938 37.8164 5.70738 39.4544 7.97088C41.0939 10.2359 42.2849 12.8279 43.0304 15.7469C43.7744 18.6644 44.0879 21.7019 43.9679 24.8624H5.53938L5.53788 24.8639ZM42.1829 23.0759C42.1829 20.2754 41.7929 17.6084 41.0204 15.0764C40.2464 12.5444 39.1004 10.3244 37.5794 8.41638C36.0599 6.51138 34.1684 5.00688 31.9034 3.90438C29.6384 2.80188 27.0164 2.25138 24.0374 2.25138C21.5324 2.25138 19.1954 2.72688 17.0204 3.68088C14.8454 4.63488 12.9404 6.02088 11.3009 7.83588C9.66288 9.65388 8.33688 11.8439 7.32288 14.4059C6.31038 16.9679 5.71488 19.8584 5.53788 23.0759H42.1829Z" fill="#FEFEFE"/>
</g>
<defs>
<clipPath id="clip0_83_141">
<rect width="48" height="48" fill="white" transform="translate(0 0.463379)"/>
</clipPath>
</defs>
</svg>
