<svg width="48" height="49" viewBox="0 0 48 49" fill="none" xmlns="http://www.w3.org/2000/svg">
<g clip-path="url(#clip0_83_145)">
<path fill-rule="evenodd" clip-rule="evenodd" d="M27.8182 1.25964C27.49 1.25964 27.1852 1.33246 26.9038 1.42954C27.5017 1.84216 27.8299 2.38827 27.994 3.00719C28.0058 3.09214 28.0292 3.15282 28.041 3.23776C28.0527 3.31058 28.0644 3.3834 28.0644 3.45621C28.1113 4.52415 27.7948 4.65765 27.572 5.2887C27.232 6.1018 27.3258 6.97557 27.7361 7.67945C27.7713 7.76439 27.8182 7.86148 27.8768 7.94643C27.4313 4.87609 29.9049 4.41493 30.3621 3.45621C30.3973 2.61884 29.7291 2.0606 29.2015 1.67226C28.6974 1.35673 28.2402 1.25964 27.8182 1.25964ZM31.5462 1.95138C31.4992 2.2305 31.5344 2.15769 31.5227 2.30332C31.511 2.4004 31.511 2.52176 31.4993 2.61884C31.4759 2.71593 31.4524 2.81301 31.4172 2.91011C31.3938 3.00719 31.3586 3.10427 31.3234 3.20136C31.2765 3.29845 31.2414 3.3834 31.1945 3.48048C31.1593 3.52904 31.1359 3.57756 31.1007 3.62611C31.0773 3.66252 31.0538 3.69893 31.0304 3.73533C30.9718 3.82029 30.9131 3.90523 30.8545 3.97805C30.7842 4.05086 30.7256 4.13581 30.6435 4.19649V4.20864C30.5732 4.26932 30.5028 4.34214 30.4208 4.40281C30.1746 4.59698 29.8932 4.74261 29.6353 4.92465C29.5533 4.98533 29.4712 5.03387 29.4009 5.10669C29.3188 5.16736 29.2485 5.22804 29.1781 5.30086C29.0961 5.37367 29.0374 5.44649 28.9671 5.53144C28.9085 5.60425 28.8381 5.6892 28.7913 5.77415C28.7326 5.8591 28.674 5.94405 28.6271 6.029C28.5802 6.12608 28.5451 6.21104 28.4982 6.30812C28.463 6.4052 28.4278 6.49016 28.4044 6.58724C28.3692 6.69646 28.3458 6.79355 28.3223 6.89064C28.3106 6.9392 28.3106 6.99986 28.2989 7.0484C28.2871 7.09696 28.2871 7.14549 28.2755 7.19403C28.2755 7.29112 28.2637 7.40034 28.2637 7.49742C28.2637 7.57024 28.2637 7.64305 28.2755 7.71587C28.2755 7.81295 28.2872 7.91004 28.3106 8.01926C28.3224 8.11634 28.3458 8.21343 28.3693 8.31052C28.4044 8.4076 28.4279 8.50469 28.463 8.60177C28.4865 8.66246 28.5217 8.72313 28.5451 8.77167L25.8488 7.69159C25.3916 7.5581 24.9461 7.43675 24.4889 7.32752C24.2427 7.26685 23.9965 7.20617 23.7504 7.14549C23.047 6.99986 22.3319 6.89064 21.6168 6.81783C21.5933 6.81783 21.5816 6.80567 21.5581 6.80567C20.8547 6.73286 20.1631 6.69645 19.4597 6.69645C18.9439 6.69645 18.4281 6.7207 17.924 6.75713C17.2089 6.80569 16.4937 6.90276 15.7786 7.02411C15.6028 7.04837 15.4269 7.0848 15.2511 7.1212C14.8877 7.19401 14.536 7.27897 14.196 7.36392C14.0202 7.41248 13.8443 7.461 13.6685 7.50954C13.4926 7.58236 13.3285 7.66731 13.1644 7.74012C13.0354 7.8008 12.9065 7.86148 12.7775 7.92216C12.7541 7.93431 12.7306 7.93431 12.7189 7.94641C12.6017 8.00709 12.4962 8.05563 12.3907 8.11631C12.3555 8.12847 12.332 8.14057 12.3086 8.15272C12.1796 8.2134 12.0507 8.28621 11.9452 8.34689C11.8631 8.3833 11.7811 8.43184 11.7107 8.46825C11.6756 8.4925 11.6287 8.51681 11.6052 8.52893C11.4997 8.58961 11.3942 8.65028 11.3004 8.71097C11.1949 8.77164 11.1011 8.83232 11.0191 8.893C10.937 8.95368 10.8549 9.00222 10.7846 9.0629C10.7728 9.07505 10.7612 9.07505 10.7494 9.08715C10.6791 9.13571 10.597 9.19637 10.5267 9.25705C10.5267 9.25705 10.5149 9.26921 10.5033 9.28131C10.4446 9.32987 10.386 9.37839 10.3274 9.42693C10.304 9.43908 10.2805 9.46334 10.2571 9.47549C10.1985 9.52406 10.1398 9.58472 10.0812 9.63326C10.0695 9.65751 10.0461 9.66967 10.0343 9.68182C9.96398 9.75464 9.89364 9.81531 9.8233 9.88813C9.81156 9.88813 9.81156 9.90028 9.79987 9.91238C9.72953 9.97306 9.65919 10.0459 9.58885 10.1187C9.57711 10.1308 9.57711 10.1429 9.56543 10.1429C9.50681 10.2036 9.4482 10.2643 9.38958 10.3371C9.36615 10.3614 9.33096 10.3857 9.30752 10.4099C9.2489 10.4827 9.17857 10.5556 9.10823 10.6284C9.09648 10.6526 9.07306 10.6648 9.06132 10.689C8.96753 10.7861 8.88547 10.8832 8.79168 10.9803C8.77994 10.9925 8.76826 11.0046 8.75651 11.0167C8.56894 11.223 8.36965 11.4293 8.15864 11.6114C7.94762 11.8055 7.72488 11.9876 7.50214 12.1453C7.26768 12.3152 7.04494 12.4609 6.79875 12.6065C6.56429 12.74 6.3181 12.8613 6.0602 12.9706C5.81401 13.0798 5.5561 13.1769 5.2982 13.2618C4.80582 13.371 4.30173 13.5773 3.86797 13.6138C3.77419 13.6138 3.66868 13.638 3.5749 13.6502C3.46939 13.6744 3.37561 13.6987 3.28182 13.723C3.18804 13.7594 3.09425 13.7958 3.00047 13.8322C2.90668 13.8686 2.8129 13.9172 2.71911 13.9657C2.63705 14.0264 2.54327 14.0749 2.4612 14.1356C2.37914 14.1963 2.29708 14.2691 2.22674 14.3419C2.14468 14.4026 2.06262 14.4875 1.99228 14.5603C1.92194 14.6453 1.8516 14.7181 1.79299 14.8031C1.73437 14.9001 1.66403 14.9851 1.61714 15.0822C1.55852 15.1671 1.49991 15.2642 1.45301 15.3613C1.4061 15.4705 1.35923 15.5676 1.32406 15.6768C1.28889 15.7739 1.25372 15.8831 1.21855 15.9924C1.19512 16.0894 1.17164 16.1865 1.15994 16.2836C1.15994 16.2958 1.1482 16.3079 1.1482 16.32C1.12477 16.4292 1.12477 16.5749 1.11303 16.6477C1.10129 16.7326 1.0896 16.8055 1.0896 16.8904C1.0896 16.939 1.0896 16.9996 1.10134 17.0482C1.11308 17.1331 1.12477 17.2059 1.14825 17.2788C1.17168 17.3516 1.19516 17.4244 1.23031 17.4972V17.5093C1.26548 17.5822 1.31237 17.655 1.35926 17.7278C1.40618 17.8006 1.45305 17.8734 1.51167 17.9462C1.57028 18.0069 1.64062 18.0797 1.71096 18.1404C1.7813 18.2132 1.85164 18.2739 1.9337 18.3346C2.21505 18.5894 2.28539 18.6744 2.64881 18.8685C2.70742 18.905 2.76604 18.9292 2.83638 18.9656C2.84812 18.9656 2.85981 18.9778 2.87155 18.9778C2.87155 19.002 2.87155 19.0142 2.88329 19.0385C2.89504 19.1356 2.91846 19.2326 2.94191 19.3297C2.96534 19.4389 3.00053 19.536 3.0357 19.621C3.07087 19.6938 3.09431 19.7666 3.12948 19.8394C3.14122 19.8637 3.15291 19.888 3.16465 19.9001C3.21156 19.9972 3.25843 20.0821 3.30532 20.1671C3.36394 20.252 3.42256 20.337 3.48117 20.4219C3.53979 20.4948 3.61013 20.5797 3.68046 20.6525C3.7508 20.7253 3.82114 20.786 3.90321 20.8588C3.90321 20.8588 3.91495 20.871 3.92663 20.871C3.99697 20.9317 4.06731 20.9924 4.13765 21.0409C4.21971 21.1016 4.30178 21.1501 4.39556 21.1987C4.47762 21.2472 4.57141 21.2957 4.66519 21.3322C4.73553 21.3686 4.81759 21.3928 4.89965 21.4171C4.9114 21.4293 4.92308 21.4293 4.94656 21.4414C4.99347 21.4535 5.05207 21.4656 5.09896 21.4778C5.06379 22.1331 5.05205 22.752 5.14587 22.9705C5.25138 23.2132 5.76719 22.4729 6.28301 21.6234C6.21268 22.4608 6.16578 23.4437 6.28301 23.735C6.41197 24.0384 7.11535 23.0918 7.72496 22.0481C16.0366 20.0579 23.6215 26.0044 24.4187 34.4023C24.2663 33.0917 22.7071 32.3635 21.992 32.5455C21.6403 33.4436 21.0424 34.5965 20.0811 35.3125C20.1632 34.5115 20.128 33.6863 19.9639 32.8853C19.706 34.0018 19.2019 35.0455 18.5102 35.9435C17.3965 36.0285 16.2828 35.4702 15.6967 34.6329C15.6498 34.5965 15.6381 34.5237 15.6029 34.4751C15.5677 34.3902 15.5325 34.3052 15.5091 34.2203C15.4739 34.1353 15.4505 34.0504 15.4388 33.9654C15.427 33.8805 15.427 33.7955 15.427 33.6984C15.427 33.6378 15.427 33.5771 15.427 33.5164C15.4388 33.4314 15.4622 33.3465 15.4856 33.2615C15.5091 33.1766 15.5325 33.0917 15.5677 33.0067C15.6146 32.9218 15.6498 32.8368 15.7084 32.7519C15.9077 32.1693 15.9077 31.696 15.5442 31.4169C15.4739 31.3684 15.4036 31.332 15.3215 31.2956C15.2746 31.2834 15.216 31.2592 15.1691 31.247C15.1339 31.2348 15.1105 31.2227 15.0753 31.2106C14.9933 31.1863 14.9112 31.162 14.8291 31.1499C14.7471 31.1257 14.665 31.1135 14.583 31.1135C14.5009 31.1013 14.4071 31.0893 14.325 31.0893C14.2664 31.0893 14.2078 31.1014 14.1492 31.1014C14.0554 31.1014 13.9733 31.1136 13.8913 31.1378C13.8092 31.15 13.7272 31.1621 13.6451 31.1864C13.563 31.2106 13.481 31.2349 13.3989 31.2713C13.3169 31.3077 13.2465 31.3441 13.1645 31.3805C13.0941 31.417 13.0238 31.4655 12.9417 31.5019C10.2102 33.3465 11.8397 37.6669 13.7037 38.9168C13.0003 39.0503 12.2852 39.2081 12.0859 39.3659C12.0742 39.378 12.0625 39.3901 12.0625 39.3901C12.5666 39.7056 13.0941 39.9726 13.6451 40.2032C14.3954 40.458 15.1926 40.6886 15.5443 40.7857V40.7979C16.5173 41.0042 17.502 41.077 18.4985 41.0163C23.6918 40.6401 27.9473 36.5504 28.721 31.1621C28.7445 31.2713 28.768 31.3684 28.7914 31.4776C28.8266 31.6961 28.8734 31.9267 28.8969 32.1572V32.1694C28.9203 32.2786 28.9321 32.3878 28.9438 32.4849V32.5335C28.9556 32.6427 28.9672 32.7519 28.9672 32.849C28.979 32.9825 28.9907 33.116 28.9907 33.2495V33.4437C28.9907 33.5043 29.0024 33.5772 29.0024 33.6378C29.0024 33.7107 28.9907 33.7835 28.9907 33.8563V34.0262C28.9907 34.1111 28.9789 34.1839 28.9789 34.2689C28.9789 34.3175 28.9789 34.366 28.9672 34.4267C28.9672 34.5116 28.9554 34.5966 28.9554 34.6936C28.9437 34.7301 28.9437 34.7665 28.9437 34.8029C28.9319 34.9 28.9202 34.9849 28.9085 35.082C28.9085 35.1184 28.9085 35.1548 28.8968 35.1912C28.885 35.3126 28.8616 35.4218 28.8499 35.5431V35.5553V35.5675C28.8264 35.6767 28.8029 35.798 28.7795 35.9073V35.9437C28.7561 36.0529 28.7326 36.1621 28.7092 36.2713C28.7092 36.2835 28.6974 36.3077 28.6974 36.3199C28.674 36.4291 28.6505 36.5383 28.6154 36.6476V36.684C28.5802 36.8053 28.545 36.9145 28.5216 37.0238C28.5099 37.0359 28.5099 37.048 28.5099 37.048C28.4747 37.1694 28.4395 37.2907 28.4044 37.4121C28.3574 37.5335 28.3223 37.6427 28.2754 37.764C28.2285 37.8854 28.1933 38.0067 28.1464 38.116C28.0995 38.2373 28.0527 38.3466 28.0058 38.4679H27.994C27.9471 38.5771 27.9002 38.6985 27.8416 38.8077C27.8299 38.8441 27.8182 38.8684 27.8064 38.8927C27.7947 38.9048 27.7947 38.9169 27.783 38.9291C27.021 40.5188 25.8956 41.9144 24.4888 43.0067C24.395 43.0673 24.3012 43.1402 24.2075 43.213C24.184 43.2372 24.1488 43.2494 24.1254 43.2736C24.0433 43.3343 23.9613 43.395 23.8675 43.4557L23.9027 43.5285H23.9144C24.0785 43.5043 24.2426 43.4799 24.4068 43.4557H24.4185C24.7233 43.4071 25.0281 43.3465 25.3329 43.2858C25.415 43.2736 25.5088 43.2494 25.5908 43.2251C25.6494 43.2129 25.6963 43.2009 25.7549 43.1887C25.837 43.1765 25.9191 43.1523 26.0011 43.1401C26.0715 43.1159 26.1418 43.1037 26.2121 43.0795C27.3845 42.7882 28.5216 42.3877 29.6118 41.9144C27.7479 44.5479 25.2508 46.6716 22.3318 48.0672C23.68 47.9701 25.0281 47.7396 26.3294 47.3512C31.0538 45.9071 35.0279 42.6183 37.4077 38.1888C36.9271 40.9921 35.8485 43.662 34.2542 45.992C35.3913 45.2153 36.4347 44.3173 37.3843 43.2979C40.0102 40.4581 41.7335 36.8538 42.3197 32.9825C42.7183 34.9 42.8355 36.8781 42.6597 38.832C51.1237 26.6113 43.363 13.9416 40.1157 10.6043C40.104 10.58 40.0923 10.5679 40.0923 10.5436C40.0806 10.5557 40.0806 10.5557 40.0806 10.5678C40.0806 10.5557 40.0806 10.5557 40.0688 10.5436C40.0688 10.6892 40.0571 10.8348 40.0454 10.9805C40.0102 11.2596 39.9751 11.5266 39.9282 11.7936C39.8696 12.0605 39.7992 12.3275 39.7289 12.5945C39.6468 12.8494 39.553 13.1163 39.4475 13.3712C39.342 13.6139 39.2248 13.8688 39.0958 14.1115C38.9669 14.3421 38.8262 14.5848 38.6738 14.8032C38.5214 15.0338 38.3573 15.2522 38.1931 15.4585C38.0173 15.677 37.8297 15.8712 37.6422 16.0653C37.5249 16.1746 37.4194 16.2716 37.3022 16.3687C37.2084 16.4537 37.1263 16.5265 37.0326 16.6114C36.8215 16.7813 36.6105 16.9391 36.3761 17.0847C36.1533 17.2304 35.9189 17.376 35.6844 17.4973C35.4382 17.6187 35.192 17.7279 34.9459 17.8371C34.6997 17.9342 34.4418 18.0192 34.1838 18.092C33.9259 18.1648 33.6563 18.2255 33.3984 18.274C33.1288 18.3226 32.8591 18.3468 32.6012 18.3711C32.4137 18.3833 32.2261 18.3954 32.0385 18.3954C31.7689 18.3954 31.4993 18.3711 31.2413 18.3468C30.9717 18.3226 30.7021 18.2861 30.4442 18.2255C30.1745 18.1769 29.9166 18.1041 29.6587 18.0191H29.647C29.9049 17.9949 30.1628 17.9706 30.4207 17.9221C30.6903 17.8735 30.9482 17.8128 31.2062 17.74C31.4641 17.6672 31.722 17.5823 31.9682 17.4852C32.2261 17.3881 32.4723 17.2667 32.7067 17.1454C32.9529 17.024 33.1756 16.8905 33.4101 16.7449C33.6328 16.5871 33.8556 16.4294 34.0666 16.2595C34.2776 16.0896 34.4769 15.9075 34.6645 15.7134C34.8638 15.5313 35.0396 15.325 35.2155 15.1187C35.3913 14.9003 35.5554 14.6818 35.7078 14.4634C35.7313 14.427 35.7547 14.3784 35.7782 14.342C35.8954 14.1478 36.0126 13.9537 36.1181 13.7595C36.2471 13.5168 36.3643 13.2741 36.4698 13.0192C36.5753 12.7644 36.6691 12.5095 36.7512 12.2425C36.8333 11.9877 36.8919 11.7207 36.9505 11.4537C36.9974 11.1746 37.0443 10.9076 37.0677 10.6406C37.0911 10.3615 37.1146 10.0824 37.1146 9.8154C37.1146 9.62122 37.1029 9.42705 37.0912 9.23288C37.0678 8.95376 37.0326 8.68677 36.9974 8.41979C36.9505 8.14067 36.8919 7.87368 36.8216 7.60669C36.7395 7.35185 36.6574 7.08486 36.5637 6.83001C36.4699 6.57516 36.3526 6.32031 36.2354 6.07759C36.1065 5.83488 35.9775 5.59216 35.8368 5.36159C35.6844 5.13101 35.532 4.91257 35.3679 4.69412C35.1921 4.48781 35.0162 4.28151 34.8286 4.0752C34.7349 3.97812 34.6293 3.86889 34.5238 3.77181C33.9963 3.34706 33.4453 2.94657 32.8943 2.58251C32.8123 2.53394 32.7419 2.49755 32.6599 2.46114C32.273 2.2063 31.9096 2.07273 31.5462 1.95138Z" fill="white"/>
</g>
<defs>
<clipPath id="clip0_83_145">
<rect width="48" height="48" fill="white" transform="translate(0 0.463379)"/>
</clipPath>
</defs>
</svg>
