<svg width="48" height="49" viewBox="0 0 48 49" fill="none" xmlns="http://www.w3.org/2000/svg">
<path d="M25.7587 3.91146C24.694 3.31268 23.3059 3.31536 22.2403 3.91146C16.9033 6.85679 11.5662 9.803 6.22824 12.747C5.18953 13.2934 4.48896 14.4089 4.50013 15.5666V33.3626C4.49263 34.5429 5.22933 35.6691 6.29482 36.2081C7.82806 37.0238 9.3177 37.9223 10.8787 38.6837C12.6818 39.5697 14.9376 39.7656 16.7628 38.8416C18.2443 38.0759 18.9024 36.3726 18.9004 34.8074C18.9124 28.9343 18.9024 23.061 18.9051 17.1878C18.9403 16.9268 18.7443 16.6478 18.4596 16.6541C17.7775 16.6433 17.0946 16.6478 16.4125 16.6523C16.1548 16.628 15.9033 16.842 15.9228 17.1011C15.9136 22.9364 15.9246 28.7735 15.9172 34.6097C15.9321 35.417 15.3867 36.1928 14.6087 36.4655C12.8118 37.0953 7.68297 33.7652 7.68297 33.7652C7.49475 33.678 7.37523 33.4739 7.39368 33.2711C7.39368 27.3998 7.39459 21.5283 7.39368 15.6579C7.3678 15.4212 7.51368 15.2081 7.73103 15.1115C13.0505 12.1835 18.3672 9.24819 23.6866 6.31842C23.8714 6.19511 24.129 6.19548 24.3133 6.31932C29.6328 9.24819 34.9505 12.1808 40.2708 15.1089C40.4889 15.2054 40.6286 15.4221 40.6063 15.6579C40.6054 21.5283 40.6082 27.3998 40.6045 33.2703C40.6203 33.4781 40.5129 33.6794 40.3189 33.7706C35.0491 36.6827 29.7193 39.5009 24.4972 42.4976C24.2694 42.6282 24.0112 42.7763 23.7559 42.6323C22.3827 41.8727 21.0261 41.0835 19.6573 40.3166C19.5085 40.2237 19.3191 40.1838 19.1638 40.2878C18.5502 40.6112 17.973 40.8731 17.2683 41.1521C16.2786 41.5439 16.4367 41.7041 17.3293 42.2241C18.93 43.13 20.5333 44.0322 22.134 44.939C23.1877 45.5966 24.6036 45.6434 25.6912 45.0357C31.0292 42.0941 36.3654 39.149 41.7043 36.2073C42.767 35.6654 43.5074 34.5437 43.4999 33.3624V15.5666C43.5102 14.4323 42.8364 13.3368 41.829 12.7823C36.4734 9.82259 31.1152 6.86934 25.7587 3.91146Z" fill="white"/>
<path d="M33.8129 17.2727C31.7178 16.1519 29.2254 16.0922 26.8973 16.2387C25.2153 16.4049 23.4464 16.869 22.221 18.0747C20.9642 19.2867 20.6906 21.2439 21.2876 22.8261C21.7154 23.9442 22.7922 24.6713 23.9058 25.0559C25.3403 25.5623 26.8469 25.7189 28.3539 25.8755C29.7285 26.0183 31.1036 26.1612 32.4248 26.5697C32.9645 26.7485 33.593 27.0221 33.7583 27.6093C33.911 28.3047 33.7436 29.1131 33.179 29.5962C31.3856 31.0157 26.3969 30.7982 24.6249 29.681C23.9085 29.205 23.5998 28.3625 23.4743 27.5595C23.4603 27.3093 23.2589 27.0798 22.9872 27.0989C22.307 27.0908 21.6267 27.0926 20.9465 27.098C20.7092 27.078 20.4624 27.2469 20.4494 27.4892C20.3096 31.1667 23.6871 32.7699 26.8559 33.1229C28.6662 33.2954 30.5163 33.2855 32.2991 32.897C33.6392 32.5919 34.9829 32.03 35.9054 30.9978C37.043 29.7434 37.2666 27.8757 36.7565 26.3132C36.3665 25.1472 35.2518 24.3993 34.1124 24.0146C32.5629 23.4833 30.7266 23.1977 29.3232 23.064C27.2834 22.8698 24.8594 22.9491 24.282 21.6087C24.0518 20.9069 24.2477 20.0354 24.8927 19.6037C26.5992 18.4461 30.0725 18.5999 31.8398 19.4646C32.6513 19.871 33.1215 20.7056 33.3156 21.5481C33.3516 21.7956 33.5181 22.0539 33.8046 22.0431C34.4802 22.0566 35.1558 22.0467 35.8313 22.0476C36.0633 22.0638 36.3174 21.9329 36.3627 21.6953C36.3341 19.9343 35.4348 18.1316 33.8129 17.2727Z" fill="white"/>
</svg>
